<?xml version="1.0" standalone="no"?>
<!DOCTYPE svg PUBLIC "-//W3C//DTD SVG 20010904//EN"
 "http://www.w3.org/TR/2001/REC-SVG-20010904/DTD/svg10.dtd">
<svg version="1.0" xmlns="http://www.w3.org/2000/svg"
 width="180.000000pt" height="201.000000pt" viewBox="0 0 180.000000 201.000000"
 preserveAspectRatio="xMidYMid meet">
<metadata>
Created by potrace 1.16, written by Peter Selinger 2001-2019
</metadata>
<g transform="translate(0.000000,201.000000) scale(0.100000,-0.100000)"
fill="#ffffff" stroke="none">
<path d="M350 1978 c-25 -13 -55 -38 -68 -57 l-23 -35 3 -496 3 -497 27 -35
c37 -49 87 -78 136 -80 l41 -1 3 -86 c3 -81 4 -86 25 -86 14 0 57 33 117 88
l94 87 137 0 c136 0 136 0 173 -30 69 -55 181 -75 274 -50 53 15 128 70 165
122 40 55 67 154 58 211 -18 117 -103 223 -208 258 l-52 18 -5 170 -5 171 -95
95 -95 95 -302 0 c-289 0 -303 -1 -313 -19 -15 -30 -14 -883 2 -899 9 -9 71
-12 216 -12 l203 0 -3 33 -3 32 -178 0 -177 0 0 403 0 402 245 0 245 0 0 -88
c0 -55 4 -92 12 -100 7 -7 44 -12 95 -12 l83 0 0 -134 0 -134 -46 -11 c-69
-18 -116 -45 -158 -92 -89 -98 -107 -225 -50 -354 2 -6 -39 -9 -118 -7 l-123
3 -72 -66 -73 -67 0 49 c0 26 -4 53 -8 60 -4 7 -35 15 -67 19 -74 8 -91 17
-115 57 -19 30 -20 54 -20 495 0 313 4 470 11 484 24 45 52 48 487 48 274 0
420 -4 441 -11 58 -20 61 -39 61 -333 0 -252 1 -266 19 -276 52 -27 51 -32 51
273 0 273 -1 284 -22 327 -17 33 -35 51 -68 68 -44 22 -48 22 -480 22 -432 0
-436 0 -480 -22z m755 -288 l39 -40 -42 0 -42 0 0 40 c0 22 1 40 3 40 2 0 21
-18 42 -40z m212 -478 c80 -41 123 -115 123 -212 0 -102 -46 -175 -135 -216
-164 -77 -339 35 -338 216 0 103 60 191 154 227 47 18 146 10 196 -15z"/>
<path d="M1236 1049 l-79 -90 -36 35 c-41 40 -76 47 -86 16 -8 -27 88 -140
119 -140 18 0 130 116 204 212 17 21 0 58 -26 58 -9 0 -53 -41 -96 -91z"/>
<path d="M582 1628 c-16 -16 -15 -23 4 -42 13 -13 42 -16 157 -16 78 0 148 4
155 9 8 4 12 19 10 32 -3 24 -3 24 -158 27 -113 2 -159 -1 -168 -10z"/>
<path d="M580 1469 c-9 -15 -8 -24 1 -35 9 -11 55 -14 249 -14 131 0 245 3
254 6 21 8 21 50 0 58 -9 3 -123 6 -254 6 -232 0 -240 -1 -250 -21z"/>
<path d="M579 1324 c-9 -11 -10 -20 -2 -32 9 -15 33 -17 189 -17 l179 0 0 30
0 30 -176 3 c-152 2 -178 0 -190 -14z"/>
<path d="M582 1178 c-16 -16 -15 -23 4 -42 12 -13 39 -16 127 -16 62 0 118 4
125 9 8 4 12 19 10 32 -3 24 -5 24 -128 27 -89 2 -129 -1 -138 -10z"/>
<path d="M90 462 c-52 -26 -72 -69 -78 -170 -6 -117 10 -194 49 -226 58 -50
145 -43 194 15 22 27 25 40 25 110 l0 79 -65 0 -65 0 0 -35 c0 -30 3 -35 23
-35 22 0 23 -3 18 -36 -8 -49 -31 -63 -65 -41 -25 17 -26 20 -26 131 0 95 3
115 18 128 26 22 55 16 70 -14 14 -29 51 -38 81 -19 18 12 6 63 -22 89 -46 43
-102 52 -157 24z"/>
<path d="M649 457 c-39 -26 -59 -60 -59 -102 0 -48 32 -88 98 -123 66 -35 87
-61 77 -92 -13 -41 -95 -32 -95 10 0 21 -10 24 -59 14 -36 -7 -37 -13 -14 -61
37 -78 155 -93 220 -28 28 28 33 40 33 81 0 62 -29 100 -108 142 -33 18 -63
39 -66 48 -10 27 12 54 44 54 23 0 33 -6 42 -28 12 -27 16 -28 46 -20 79 21 3
128 -91 128 -19 0 -49 -10 -68 -23z"/>
<path d="M963 465 c-47 -20 -70 -66 -78 -151 -15 -160 15 -248 94 -273 79 -25
151 17 167 97 6 28 4 30 -31 36 -20 4 -38 6 -39 4 -1 -2 -7 -15 -14 -30 -15
-35 -54 -38 -76 -6 -18 26 -23 180 -7 221 19 50 77 45 87 -8 6 -32 6 -32 45
-22 46 11 51 33 19 84 -35 58 -101 77 -167 48z"/>
<path d="M1263 464 c-58 -29 -67 -55 -71 -194 -3 -139 7 -174 61 -214 36 -26
113 -27 152 -2 49 32 67 93 63 214 -4 121 -15 154 -67 189 -40 27 -92 29 -138
7z m101 -80 c13 -12 16 -39 16 -125 0 -96 -2 -111 -20 -129 -25 -25 -32 -25
-61 -1 -23 18 -24 26 -24 129 0 118 9 142 51 142 12 0 30 -7 38 -16z"/>
<path d="M335 431 c-3 -21 -6 -63 -5 -92 1 -30 1 -105 0 -166 -1 -62 2 -117 5
-123 3 -6 51 -10 111 -10 l104 0 0 40 0 40 -65 0 -65 0 0 50 0 50 55 0 55 0 0
40 0 40 -55 0 -55 0 0 45 0 45 65 0 65 0 0 40 0 40 -104 0 -104 0 -7 -39z"/>
<path d="M1520 256 l0 -216 40 0 40 0 0 118 0 117 53 -115 54 -115 41 -3 42
-3 0 215 0 216 -40 0 -40 0 0 -127 -1 -128 -52 125 -52 125 -43 3 -42 3 0
-215z"/>
</g>
</svg>
