<?xml version="1.0" standalone="no"?>
<!DOCTYPE svg PUBLIC "-//W3C//DTD SVG 20010904//EN"
 "http://www.w3.org/TR/2001/REC-SVG-20010904/DTD/svg10.dtd">
<svg version="1.0" xmlns="http://www.w3.org/2000/svg"
 width="500.000000pt" height="500.000000pt" viewBox="0 0 500.000000 500.000000"
 preserveAspectRatio="xMidYMid meet">

<g transform="translate(0.000000,500.000000) scale(0.100000,-0.100000)"
fill="#000000" stroke="none">
<path d="M1525 4480 c-86 -22 -167 -88 -207 -168 l-23 -47 0 -920 0 -920 33
-67 c61 -125 163 -198 289 -206 l73 -5 0 -147 c0 -130 2 -149 18 -163 42 -38
81 -17 212 113 3 3 48 43 100 90 52 47 101 91 108 97 10 10 81 13 284 13 l270
0 37 -29 c95 -74 181 -111 302 -131 173 -28 365 39 501 173 95 93 141 188 167
343 24 143 -39 345 -145 463 -80 89 -205 162 -309 180 l-40 7 -5 319 c-3 186
-9 327 -15 337 -13 21 -316 330 -352 357 -25 21 -36 21 -588 21 l-562 0 -24
-26 -24 -26 0 -848 c0 -802 1 -850 18 -867 16 -17 49 -18 403 -21 l385 -3 -3
58 -3 58 -342 3 -343 2 0 775 0 775 480 0 480 0 0 -159 c0 -155 1 -161 24
-188 l24 -28 161 -3 161 -3 -2 -262 -3 -262 -65 -12 c-138 -25 -224 -69 -315
-161 -130 -132 -191 -317 -166 -497 11 -76 42 -176 63 -199 4 -6 8 -14 8 -18
0 -4 -111 -8 -246 -8 -234 0 -247 -1 -272 -21 -24 -18 -203 -182 -238 -217 -7
-6 -15 -12 -18 -12 -3 0 -6 51 -6 113 0 75 -4 117 -12 125 -8 8 -46 12 -103
12 -138 0 -200 36 -261 150 -18 33 -19 75 -19 927 l0 891 30 43 c17 23 48 52
70 63 40 21 48 21 870 21 793 0 832 -1 865 -19 42 -23 53 -33 79 -77 20 -33
21 -46 21 -537 0 -326 4 -510 10 -523 12 -22 61 -49 89 -49 13 0 23 8 26 23 4
13 5 259 3 547 l-3 525 -28 55 c-36 70 -79 115 -142 148 l-50 27 -850 2 c-467
1 -863 -2 -880 -7z m1469 -662 c-3 -4 -43 -8 -90 -8 l-84 0 0 97 0 98 89 -89
c50 -49 88 -93 85 -98z m241 -790 c106 -36 213 -117 268 -205 51 -80 70 -157
65 -263 -12 -233 -156 -397 -392 -446 -66 -13 -88 -14 -145 -3 -210 39 -356
186 -391 393 -35 210 91 431 290 511 82 32 229 39 305 13z"/>
<path d="M3295 2808 c-15 -18 -44 -51 -64 -73 -20 -22 -67 -76 -106 -120 -38
-44 -80 -91 -93 -105 l-23 -25 -74 79 c-67 70 -77 78 -102 72 -64 -16 -71 -75
-15 -133 20 -22 62 -66 92 -99 30 -32 63 -64 74 -70 29 -17 65 0 110 54 21 26
55 65 75 87 20 22 70 78 111 125 41 47 87 98 102 115 35 38 38 87 6 109 -35
25 -63 19 -93 -16z"/>
<path d="M1917 3782 c-10 -10 -17 -27 -17 -38 0 -38 17 -48 92 -55 109 -11
473 -10 502 1 39 14 53 53 32 85 l-16 25 -289 0 c-266 0 -289 -1 -304 -18z"/>
<path d="M1922 3494 c-28 -19 -29 -57 -2 -84 19 -19 33 -20 478 -20 503 0 502
0 502 59 0 62 10 61 -496 61 -400 0 -462 -2 -482 -16z"/>
<path d="M1917 3202 c-21 -23 -22 -56 -1 -76 13 -14 59 -16 343 -16 358 0 354
-1 354 57 0 52 -10 53 -358 53 -299 0 -323 -1 -338 -18z"/>
<path d="M1920 2920 c-25 -25 -26 -62 -2 -83 16 -15 48 -17 244 -17 205 0 226
2 241 18 22 24 21 65 -1 85 -16 15 -48 17 -240 17 -209 0 -223 -1 -242 -20z"/>
<path d="M972 1548 c-41 -15 -62 -31 -85 -64 -56 -80 -60 -100 -61 -334 -1
-233 3 -261 55 -336 37 -54 87 -77 176 -82 114 -6 182 24 234 106 28 45 29 49
29 189 l0 143 -115 0 -115 0 0 -60 0 -60 41 0 42 0 -5 -72 c-7 -86 -25 -108
-92 -108 -49 0 -81 26 -96 81 -13 46 -13 344 1 393 32 115 167 117 186 3 6
-37 6 -37 47 -31 103 13 106 14 106 36 0 80 -78 182 -157 206 -61 17 -130 14
-191 -10z"/>
<path d="M2081 1556 c-44 -16 -107 -69 -127 -108 -20 -39 -23 -163 -5 -198 26
-50 88 -102 180 -153 107 -59 141 -93 141 -142 0 -52 -35 -86 -91 -88 -59 -2
-95 21 -110 73 -12 39 -13 40 -48 34 -20 -3 -52 -10 -72 -15 -35 -9 -37 -11
-29 -42 30 -125 111 -187 246 -187 83 0 134 18 182 63 50 48 67 91 66 172 -1
103 -37 158 -145 221 -30 17 -79 46 -111 64 -73 43 -95 90 -66 143 18 34 40
46 85 47 48 0 76 -27 87 -83 l6 -34 63 16 62 17 -3 43 c-6 97 -103 172 -219
170 -32 0 -73 -6 -92 -13z"/>
<path d="M2680 1558 c-14 -6 -40 -17 -57 -25 -38 -16 -74 -61 -100 -123 -16
-39 -18 -75 -18 -270 0 -209 2 -228 22 -271 30 -66 51 -88 108 -115 71 -34
167 -33 235 1 38 19 57 37 80 78 27 47 49 131 38 143 -3 2 -35 8 -71 12 -71 9
-77 6 -77 -42 0 -30 -46 -76 -77 -76 -44 0 -80 27 -98 73 -24 63 -19 386 7
433 32 59 119 69 152 19 9 -13 16 -45 16 -71 0 -38 3 -45 16 -40 9 3 28 9 42
12 15 3 42 10 60 16 34 10 34 11 27 56 -19 124 -111 203 -236 201 -24 0 -55
-5 -69 -11z"/>
<path d="M3248 1555 c-85 -31 -131 -90 -154 -198 -18 -83 -18 -366 0 -432 36
-136 111 -195 250 -195 115 1 181 42 228 145 22 47 23 61 23 275 0 216 -1 227
-24 278 -28 61 -84 114 -140 130 -50 16 -137 14 -183 -3z m136 -127 c14 -6 35
-30 46 -53 18 -37 20 -61 20 -223 0 -104 -5 -193 -11 -209 -19 -50 -48 -73
-94 -73 -56 0 -89 27 -104 84 -14 58 -14 310 0 378 19 87 78 126 143 96z"/>
<path d="M1493 1552 l-53 -3 0 -405 0 -404 200 0 200 0 0 73 0 74 -125 -5
-125 -5 0 102 0 101 105 0 105 0 0 70 0 70 -105 0 -105 0 0 100 0 100 125 0
125 0 0 71 0 70 -147 -3 c-82 -2 -172 -4 -200 -6z"/>
<path d="M3720 1149 l0 -409 70 0 70 0 0 238 c1 271 -8 265 84 57 27 -60 66
-148 87 -193 22 -46 39 -88 39 -93 0 -5 32 -9 70 -9 l70 0 0 410 0 410 -70 0
-70 0 0 -242 -1 -243 -19 40 c-11 22 -48 110 -84 195 -35 85 -72 174 -83 198
l-18 43 -73 4 -72 3 0 -409z"/>
</g>
</svg>
