<?xml version="1.0" standalone="no"?>
<!DOCTYPE svg PUBLIC "-//W3C//DTD SVG 20010904//EN"
 "http://www.w3.org/TR/2001/REC-SVG-20010904/DTD/svg10.dtd">
<svg version="1.0" xmlns="http://www.w3.org/2000/svg"
 width="250.000000pt" height="272.000000pt" viewBox="0 0 250.000000 272.000000"
 preserveAspectRatio="xMidYMid meet">

<g transform="translate(0.000000,272.000000) scale(0.100000,-0.100000)"
fill="#000000" stroke="none">
<path d="M305 2681 c-89 -22 -164 -83 -205 -166 l-25 -50 0 -910 c0 -999 -3
-952 61 -1050 62 -95 170 -155 279 -155 l55 0 0 -148 c0 -132 2 -151 18 -165
29 -27 63 -20 108 21 237 213 304 274 309 282 4 6 112 10 281 10 l276 0 41
-34 c121 -99 304 -150 448 -126 284 47 471 236 518 520 29 176 -70 412 -222
528 -82 63 -143 90 -259 116 l-27 6 -3 329 -3 330 -185 185 -186 186 -564 0
c-428 -1 -569 -4 -581 -13 -39 -30 -39 -31 -39 -890 0 -807 1 -836 19 -858
l19 -24 387 -3 386 -3 -3 58 -3 58 -342 3 -343 2 0 775 0 775 480 0 480 0 0
-164 0 -164 31 -26 c30 -26 33 -26 185 -26 l154 0 -3 -262 -2 -263 -70 -12
c-165 -27 -286 -105 -379 -242 -84 -125 -122 -298 -97 -433 12 -61 46 -162 63
-184 4 -6 5 -14 1 -17 -3 -4 -116 -7 -250 -7 l-244 0 -52 -47 c-28 -27 -77
-71 -107 -99 -30 -29 -70 -64 -87 -79 l-33 -27 0 114 c0 75 -4 118 -12 126 -7
7 -44 12 -96 12 -47 0 -102 5 -123 12 -51 15 -114 69 -142 122 l-22 41 -3 880
c-3 964 -5 930 56 988 61 58 42 57 911 57 867 0 853 1 914 -56 57 -53 57 -52
57 -598 0 -275 4 -506 8 -512 11 -17 68 -44 92 -44 20 0 20 1 20 549 l-1 549
-30 61 c-33 65 -76 107 -149 143 l-45 23 -845 2 c-465 1 -858 -2 -875 -6z
m1469 -663 c-3 -4 -43 -8 -90 -8 l-84 0 0 97 0 98 89 -89 c50 -49 88 -93 85
-98z m261 -800 c170 -59 297 -218 311 -389 7 -83 -4 -156 -36 -243 -17 -45
-39 -76 -94 -131 -82 -82 -147 -117 -262 -141 -96 -20 -170 -9 -279 41 -157
71 -265 242 -265 419 0 61 35 191 67 245 51 88 153 169 258 206 77 27 209 24
300 -7z"/>
<path d="M2033 963 c-38 -43 -102 -116 -143 -163 -40 -47 -79 -91 -86 -99 -12
-13 -25 -4 -93 63 -67 65 -84 76 -103 71 -37 -12 -48 -25 -48 -60 0 -26 13
-46 68 -106 38 -41 82 -89 98 -108 21 -23 39 -34 59 -34 29 0 43 13 145 128
254 287 254 287 254 321 0 22 -7 39 -19 49 -38 28 -59 18 -132 -62z"/>
<path d="M697 1982 c-10 -10 -17 -30 -17 -44 0 -51 10 -53 317 -53 l285 0 19
24 c24 30 24 42 -1 69 -20 22 -26 22 -304 22 -261 0 -284 -1 -299 -18z"/>
<path d="M697 1692 c-24 -26 -21 -68 5 -86 20 -14 82 -16 480 -16 445 0 459 1
478 20 11 11 20 29 20 40 0 11 -9 29 -20 40 -19 19 -33 20 -483 20 -437 0
-465 -1 -480 -18z"/>
<path d="M697 1402 c-19 -21 -21 -45 -7 -73 10 -18 25 -19 345 -19 l334 0 15
28 c15 28 8 57 -18 74 -6 4 -155 8 -332 8 -298 0 -322 -1 -337 -18z"/>
<path d="M702 1124 c-27 -19 -29 -64 -4 -87 16 -15 48 -17 245 -17 222 0 226
0 241 22 22 31 20 54 -6 78 -21 19 -34 20 -238 20 -179 0 -219 -3 -238 -16z"/>
</g>
</svg>
